<svg width="1401" height="1080" viewBox="0 0 1401 1080" fill="none" xmlns="http://www.w3.org/2000/svg">
<rect y="-277.309" width="94.9305" height="1162.78" transform="rotate(-31.0693 0 -277.309)" fill="#3BCABB"/>
<path d="M564.394 802.058C563.883 802.364 563.367 802.698 562.858 803.059C562.829 803.08 562.801 803.103 562.776 803.129C562.523 803.382 562.523 803.792 562.776 804.045L569.352 810.621C570.127 811.397 571.384 811.397 572.16 810.621C572.532 810.249 572.741 809.744 572.741 809.217V807.022C572.741 805.14 573.489 803.336 574.819 802.006C575.088 801.737 575.378 801.49 575.687 801.267L596.568 786.214L597.92 784.861C598.341 784.44 598.802 784.062 599.298 783.732L599.929 783.311C600.004 783.261 600.074 783.203 600.138 783.14C600.394 782.883 600.539 782.535 600.539 782.173V781.995V781.077C600.539 780.784 600.462 780.496 600.316 780.241C600.138 779.929 599.865 779.682 599.537 779.536L599.244 779.406C599.034 779.313 598.806 779.264 598.576 779.264H597.994C597.871 779.264 597.748 779.278 597.628 779.305L597.028 779.438C596.282 779.604 595.575 779.036 595.575 778.272V772.812C595.575 772.159 595.727 771.515 596.019 770.931L596.524 769.921C596.553 769.863 596.591 769.81 596.637 769.764C596.873 769.528 597.255 769.528 597.491 769.764L598.23 770.503C598.441 770.714 598.591 770.979 598.664 771.269L598.954 772.428C599.017 772.683 599.049 772.944 599.049 773.207V773.842C599.049 774.725 599.569 775.525 600.376 775.883C600.953 776.14 601.613 776.14 602.19 775.883L602.61 775.697C603.161 775.451 603.517 774.904 603.517 774.301V771.322L603.02 768.344L602.028 765.862L600.042 761.395L598.553 758.417L596.879 756.743C596.672 756.536 596.486 756.308 596.323 756.064C595.835 755.332 595.575 754.473 595.575 753.593V752.957V751.618C595.575 750.554 595.23 749.518 594.591 748.667L594.474 748.51C594.217 748.168 593.904 747.871 593.548 747.634C592.927 747.221 592.199 747 591.453 747H591.079C590.442 747 589.811 747.122 589.219 747.358L588.609 747.602C587.965 747.86 587.38 748.246 586.89 748.736L586.505 749.121C585.949 749.676 585.594 750.402 585.497 751.182L585.242 753.222C585.188 753.649 584.85 753.983 584.423 754.03C582.024 754.297 579.824 755.486 578.287 757.346L571.95 765.018C571.518 765.54 571.399 766.253 571.637 766.888C571.861 767.487 572.373 767.932 572.998 768.07L573.205 768.116C573.856 768.261 574.538 768.114 575.071 767.714L578.202 765.366C579.042 764.386 580.64 765.132 580.427 766.405L579.724 770.625C579.702 770.759 579.691 770.894 579.691 771.03V771.986C579.691 774.161 580.197 776.306 581.17 778.252L581.783 779.477C582.365 780.643 582.669 781.929 582.669 783.232C582.669 785.459 581.784 787.595 580.21 789.169L573.944 795.435C571.202 798.177 567.72 800.064 564.394 802.058Z" fill="white" stroke="white"/>
<g filter="url(#filter0_f_206_435)">
<path d="M519.134 830.887C517.22 832.118 513.318 834.772 510.676 837.001C509.838 837.708 508.578 837.705 507.803 836.929L507.747 836.874C507.41 836.537 507.221 836.08 507.221 835.603C507.221 835.126 507.032 834.669 506.695 834.332L506.476 834.114C506 833.637 505.353 833.369 504.679 833.369H503.746C501.839 833.369 500.011 834.127 498.662 835.475L498.226 835.911C497.936 836.202 497.666 836.513 497.42 836.841L496.045 838.675C495.229 839.761 494.62 840.988 494.247 842.295L494.01 843.125C493.883 843.568 493.819 844.027 493.819 844.488C493.819 845.938 493.186 847.314 492.085 848.257L490.344 849.75C489.027 850.738 487.857 851.907 486.87 853.224L485.689 854.799C485.483 855.073 485.259 855.331 485.017 855.573C483.661 856.93 482.899 858.769 482.899 860.688V861.166V865.137V867.692C482.899 868.297 482.758 868.894 482.487 869.435L482.297 869.814C481.753 870.903 480.641 871.59 479.424 871.59C478.129 871.59 476.864 871.974 475.786 872.692L474.46 873.576L471.995 874.808C471.654 874.979 471.332 875.185 471.034 875.424L470.3 876.011C469.478 876.668 469 877.663 469 878.715C469 879.253 469.125 879.783 469.366 880.264L469.559 880.651C470.157 881.846 471.185 882.771 472.436 883.241L473.206 883.529C474.035 883.84 474.914 884 475.8 884H475.949C476.934 884 477.911 883.823 478.833 883.477L479.656 883.168C480.819 882.732 481.914 882.132 482.907 881.387L483.218 881.154C484.649 880.081 485.887 878.772 486.879 877.284L488.359 875.065L489.615 873.27C490.931 871.39 493.326 870.599 495.503 871.324C496.031 871.501 496.585 871.59 497.142 871.59H499.356C501.279 871.59 503.19 871.296 505.024 870.717L511.688 868.612L519.134 865.137L525.587 861.166L529.789 859.066C531.565 858.177 532.977 856.7 533.784 854.885C534.27 853.79 534.522 852.605 534.522 851.407V849.75V845.867C534.522 844.527 534.992 843.229 535.849 842.2C536.601 841.298 537.611 840.649 538.743 840.341L542.464 839.326C546.364 838.676 550.021 836.999 553.059 834.467L554.377 833.369L560.333 827.413L561.92 826.053C563.158 824.991 564.108 823.633 564.681 822.106L565.19 820.749C565.261 820.56 565.297 820.36 565.297 820.159V819.655C565.297 819.005 564.77 818.478 564.12 818.478C563.916 818.478 563.714 818.531 563.537 818.633L561.122 820.013C560.597 820.313 560.096 820.653 559.624 821.031L557.851 822.449C557.131 822.881 556.387 821.928 556.981 821.334L557.851 820.464L562.815 815.996L567.779 812.522L571.254 810.04L571.685 809.68C573.076 808.521 573.225 806.439 572.014 805.094L571.643 804.681C570.622 803.547 568.858 803.5 567.779 804.58L563.789 808.17C563.162 808.735 562.348 809.047 561.505 809.047C560.746 809.047 560.008 809.3 559.409 809.766L555.866 812.522L549.863 817.324C548.905 818.09 547.853 818.73 546.732 819.229L546.674 819.254C544.88 820.051 542.938 820.464 540.975 820.464H539.898C537.99 820.464 536.103 820.864 534.359 821.639C533.15 822.176 532.026 822.886 531.022 823.747L530.43 824.254C529.52 825.035 528.538 825.727 527.497 826.322L525.587 827.413L519.134 830.887Z" fill="white" fill-opacity="0.51"/>
</g>
<rect y="-277.309" width="94.9305" height="1162.78" transform="rotate(-31.0693 0 -277.309)" fill="#3BCABB"/>
<rect x="158" y="-364.009" width="94.9305" height="1162.48" transform="rotate(-31.0693 158 -364.009)" fill="#3BCABB"/>
<rect x="836.982" y="584.071" width="94.9305" height="747.672" transform="rotate(-121.207 836.982 584.071)" fill="#3BCABB"/>
<rect x="691.286" y="872.736" width="94.9305" height="1022.53" transform="rotate(-121.207 691.286 872.736)" fill="#3BCABB"/>
<rect x="947.07" y="922.839" width="94.9305" height="1022.53" transform="rotate(-121.207 947.07 922.839)" fill="#3BCABB"/>
<rect x="1341.3" y="1077.44" width="94.9305" height="763.624" transform="rotate(-121.207 1341.3 1077.44)" fill="#3BCABB"/>
<rect x="862.687" y="150.645" width="94.9305" height="561.836" transform="rotate(-121.207 862.687 150.645)" fill="#3BCABB"/>
<rect x="1113.2" y="1019.09" width="94.9305" height="412.685" transform="rotate(-121.207 1113.2 1019.09)" fill="#3BCABB"/>
<rect x="645.633" y="796.187" width="95.422" height="938.436" transform="rotate(-31.0693 645.633 796.187)" fill="#3BCABB"/>
<rect x="897.884" y="844.901" width="94.9305" height="855.454" transform="rotate(-31.1987 897.884 844.901)" fill="#3BCABB"/>
<rect x="806.145" y="380.468" width="94.9305" height="322.86" transform="rotate(-120.387 806.145 380.468)" fill="#3BCABB"/>
<rect x="1151.59" y="181.378" width="94.9305" height="322.86" transform="rotate(-120.387 1151.59 181.378)" fill="#3BCABB"/>
<rect x="607.055" y="263.124" width="94.9305" height="188.47" transform="rotate(-120.387 607.055 263.124)" fill="#3BCABB"/>
<rect x="553.026" y="-39.5676" width="94.9305" height="489.735" transform="rotate(-31.0693 553.026 -39.5676)" fill="#3BCABB"/>
<rect x="1173.45" y="981.839" width="94.9305" height="489.735" transform="rotate(-31.0693 1173.45 981.839)" fill="#3BCABB"/>
<path d="M559.091 741.023V740.636C559.098 739.311 559.216 738.254 559.443 737.466C559.678 736.678 560.019 736.042 560.466 735.557C560.913 735.072 561.451 734.633 562.08 734.239C562.549 733.936 562.97 733.621 563.341 733.295C563.712 732.97 564.008 732.61 564.227 732.216C564.447 731.814 564.557 731.367 564.557 730.875C564.557 730.352 564.432 729.894 564.182 729.5C563.932 729.106 563.595 728.803 563.17 728.591C562.754 728.379 562.292 728.273 561.784 728.273C561.292 728.273 560.826 728.383 560.386 728.602C559.947 728.814 559.587 729.133 559.307 729.557C559.027 729.973 558.875 730.492 558.852 731.114H554.216C554.254 729.598 554.617 728.348 555.307 727.364C555.996 726.371 556.909 725.633 558.045 725.148C559.182 724.655 560.436 724.409 561.807 724.409C563.314 724.409 564.648 724.659 565.807 725.159C566.966 725.652 567.875 726.367 568.534 727.307C569.193 728.246 569.523 729.379 569.523 730.705C569.523 731.591 569.375 732.379 569.08 733.068C568.792 733.75 568.386 734.356 567.864 734.886C567.341 735.409 566.723 735.883 566.011 736.307C565.413 736.663 564.92 737.034 564.534 737.42C564.155 737.807 563.871 738.254 563.682 738.761C563.5 739.269 563.405 739.894 563.398 740.636V741.023H559.091ZM561.341 748.295C560.583 748.295 559.936 748.03 559.398 747.5C558.867 746.962 558.606 746.318 558.614 745.568C558.606 744.826 558.867 744.189 559.398 743.659C559.936 743.129 560.583 742.864 561.341 742.864C562.061 742.864 562.693 743.129 563.239 743.659C563.784 744.189 564.061 744.826 564.068 745.568C564.061 746.068 563.928 746.527 563.67 746.943C563.42 747.352 563.091 747.682 562.682 747.932C562.273 748.174 561.826 748.295 561.341 748.295Z" fill="white"/>
<defs>
<filter id="filter0_f_206_435" x="465" y="799.799" width="111.834" height="88.2006" filterUnits="userSpaceOnUse" color-interpolation-filters="sRGB">
<feFlood flood-opacity="0" result="BackgroundImageFix"/>
<feBlend mode="normal" in="SourceGraphic" in2="BackgroundImageFix" result="shape"/>
<feGaussianBlur stdDeviation="2" result="effect1_foregroundBlur_206_435"/>
</filter>
</defs>
</svg>
