<svg width="1401" height="1080" viewBox="0 0 1401 1080" fill="none" xmlns="http://www.w3.org/2000/svg">
<rect y="-277.309" width="94.9305" height="1162.78" transform="rotate(-31.0693 0 -277.309)" fill="#3BCABB"/>
<rect y="-277.309" width="94.9305" height="1162.78" transform="rotate(-31.0693 0 -277.309)" fill="#3BCABB"/>
<rect x="155.581" y="-363.01" width="94.9305" height="1162.78" transform="rotate(-31.0693 155.581 -363.01)" fill="#3BCABB"/>
<rect x="836.982" y="584.071" width="94.9305" height="747.672" transform="rotate(-121.207 836.982 584.071)" fill="#3BCABB"/>
<rect x="691.286" y="872.736" width="94.9305" height="1022.53" transform="rotate(-121.207 691.286 872.736)" fill="#3BCABB"/>
<rect x="947.07" y="922.839" width="94.9305" height="1022.53" transform="rotate(-121.207 947.07 922.839)" fill="#3BCABB"/>
<rect x="1341.3" y="1077.44" width="94.9305" height="763.624" transform="rotate(-121.207 1341.3 1077.44)" fill="#3BCABB"/>
<rect x="862.687" y="150.645" width="94.9305" height="561.836" transform="rotate(-121.207 862.687 150.645)" fill="#3BCABB"/>
<rect x="1113.2" y="1019.09" width="94.9305" height="412.685" transform="rotate(-121.207 1113.2 1019.09)" fill="#3BCABB"/>
<rect x="645.633" y="796.187" width="95.422" height="938.436" transform="rotate(-31.0693 645.633 796.187)" fill="#3BCABB"/>
<rect x="897.884" y="844.901" width="94.9305" height="855.454" transform="rotate(-31.1987 897.884 844.901)" fill="#3BCABB"/>
<rect x="806.145" y="380.468" width="94.9305" height="322.86" transform="rotate(-120.387 806.145 380.468)" fill="#3BCABB"/>
<rect x="1151.59" y="181.378" width="94.9305" height="322.86" transform="rotate(-120.387 1151.59 181.378)" fill="#3BCABB"/>
<rect x="607.055" y="263.124" width="94.9305" height="188.47" transform="rotate(-120.387 607.055 263.124)" fill="#3BCABB"/>
<rect x="553.026" y="-39.5677" width="94.9305" height="489.735" transform="rotate(-31.0693 553.026 -39.5677)" fill="#3BCABB"/>
<rect x="1173.45" y="981.839" width="94.9305" height="489.735" transform="rotate(-31.0693 1173.45 981.839)" fill="#3BCABB"/>
</svg>
