<svg width="140" height="142" viewBox="0 0 140 142" fill="none" xmlns="http://www.w3.org/2000/svg">
<path d="M99.3939 56.0575C98.883 56.3638 98.3666 56.6977 97.8577 57.0594C97.8286 57.0801 97.8012 57.1033 97.7759 57.1285C97.5228 57.3817 97.5228 57.7922 97.7759 58.0454L104.352 64.6214C105.127 65.3968 106.384 65.3968 107.16 64.6214C107.532 64.249 107.741 63.744 107.741 63.2174V61.0218C107.741 59.1403 108.489 57.3359 109.819 56.0055C110.088 55.7366 110.378 55.4897 110.687 55.2673L131.568 40.2138L132.92 38.861C133.341 38.4402 133.802 38.062 134.298 37.7319L134.929 37.3106C135.004 37.2607 135.074 37.2034 135.138 37.1397C135.394 36.8832 135.539 36.5353 135.539 36.1726V35.9946V35.0773C135.539 34.7839 135.462 34.4955 135.316 34.2407C135.138 33.929 134.865 33.6822 134.537 33.5364L134.244 33.4062C134.034 33.3128 133.806 33.2645 133.576 33.2645H132.994C132.871 33.2645 132.748 33.278 132.628 33.3047L132.028 33.4378C131.282 33.6036 130.575 33.0359 130.575 32.2717V26.8116C130.575 26.1587 130.727 25.5148 131.019 24.9309L131.524 23.921C131.553 23.8629 131.591 23.8099 131.637 23.764C131.873 23.5282 132.255 23.5282 132.491 23.764L133.23 24.5031C133.441 24.7144 133.591 24.9793 133.664 25.2692L133.954 26.4281C134.017 26.6828 134.049 26.9443 134.049 27.2069V27.8419C134.049 28.7246 134.569 29.5245 135.376 29.883C135.953 30.1397 136.613 30.1397 137.19 29.883L137.61 29.6967C138.161 29.4515 138.517 28.9044 138.517 28.3007V25.3225L138.02 22.3442L137.028 19.8623L135.042 15.3949L133.553 12.4167L131.879 10.743C131.672 10.5356 131.486 10.3082 131.323 10.0642C130.835 9.33248 130.575 8.47277 130.575 7.59338V6.95652V5.61768C130.575 4.55352 130.23 3.51806 129.591 2.66672L129.474 2.51009C129.217 2.16769 128.904 1.87146 128.548 1.63405C127.927 1.22062 127.199 1 126.453 1H126.079C125.442 1 124.811 1.12163 124.219 1.35835L123.609 1.60241C122.965 1.85995 122.38 2.2456 121.89 2.73595L121.505 3.12051C120.949 3.67644 120.594 4.40181 120.497 5.18194L120.242 7.22224C120.188 7.64859 119.85 7.98274 119.423 8.03019C117.024 8.29665 114.824 9.48589 113.287 11.3462L106.95 19.0181C106.518 19.5404 106.399 20.2533 106.637 20.8876C106.861 21.4866 107.373 21.9315 107.998 22.0703L108.205 22.1163C108.856 22.261 109.538 22.114 110.071 21.714L113.202 19.3659C114.042 18.3856 115.64 19.1318 115.427 20.4054L114.724 24.6247C114.702 24.7587 114.691 24.8944 114.691 25.0303V25.9857C114.691 28.161 115.197 30.3064 116.17 32.252L116.783 33.4771C117.365 34.643 117.669 35.9286 117.669 37.2322C117.669 39.4591 116.784 41.5948 115.21 43.1694L108.944 49.4355C106.202 52.1772 102.72 54.0641 99.3939 56.0575Z" fill="white" stroke="white"/>
<g filter="url(#filter0_f_26_463)">
<path d="M54.1341 84.8875C52.2201 86.1179 48.318 88.7716 45.6759 91.0006C44.8378 91.7076 43.5779 91.7045 42.8026 90.9292L42.7475 90.8741C42.4104 90.537 42.221 90.0798 42.221 89.603C42.221 89.1263 42.0316 88.6691 41.6945 88.332L41.4764 88.1139C40.9997 87.6372 40.3531 87.3694 39.6789 87.3694H38.7464C36.8394 87.3694 35.0106 88.1269 33.6622 89.4753L33.226 89.9115C32.9356 90.2019 32.6662 90.5125 32.4198 90.8411L31.0446 92.6746C30.2295 93.7614 29.6203 94.9883 29.247 96.2946L29.0098 97.1248C28.8831 97.5683 28.8188 98.0272 28.8188 98.4885C28.8188 99.9375 28.1856 101.314 27.0854 102.257L25.3442 103.75C24.0272 104.738 22.8573 105.907 21.8696 107.224L20.6888 108.799C20.4835 109.073 20.259 109.331 20.017 109.573C18.6606 110.93 17.8985 112.769 17.8985 114.688V115.166V119.137V121.692C17.8985 122.297 17.7576 122.894 17.487 123.435L17.2974 123.814C16.7532 124.903 15.6408 125.59 14.4239 125.59C13.1293 125.59 11.8636 125.974 10.7864 126.692L9.46014 127.576L6.99533 128.808C6.65399 128.979 6.33163 129.185 6.03363 129.424L5.29967 130.011C4.4782 130.668 4 131.663 4 132.715C4 133.253 4.12517 133.783 4.3656 134.264L4.5591 134.651C5.1569 135.846 6.18472 136.771 7.43634 137.241L8.2057 137.529C9.03523 137.84 9.91395 138 10.7999 138H10.9493C11.934 138 12.9107 137.823 13.8327 137.477L14.6563 137.168C15.8191 136.732 16.9138 136.132 17.9073 135.387L18.2185 135.154C19.6494 134.081 20.8873 132.772 21.8795 131.284L23.3587 129.065L24.6154 127.27C25.9311 125.39 28.3258 124.599 30.5025 125.324C31.0312 125.501 31.5848 125.59 32.1421 125.59H34.3555C36.2787 125.59 38.1904 125.296 40.0243 124.717L46.6884 122.612L54.1341 119.137L60.5869 115.166L64.7888 113.066C66.565 112.177 67.9772 110.7 68.7838 108.885C69.2703 107.79 69.5217 106.605 69.5217 105.407V103.75V99.8672C69.5217 98.5272 69.9916 97.2295 70.8495 96.2C71.6007 95.2985 72.6108 94.6494 73.7429 94.3406L77.4638 93.3259C81.3643 92.6758 85.0215 90.9988 88.0593 88.4672L89.3768 87.3694L95.3333 81.4128L96.9196 80.0532C98.1583 78.9914 99.1084 77.6334 99.6813 76.1058L100.19 74.7489C100.261 74.5602 100.297 74.3603 100.297 74.1588V73.6547C100.297 73.0049 99.7703 72.478 99.1204 72.478C98.9157 72.478 98.7144 72.5315 98.5367 72.6331L96.1218 74.013C95.597 74.3129 95.0962 74.6532 94.6242 75.0309L92.8514 76.4491C92.1308 76.8814 91.3867 75.9283 91.9809 75.3341L92.8514 74.4636L97.8152 69.9962L102.779 66.5215L106.254 64.0396L106.685 63.6798C108.076 62.5211 108.225 60.4392 107.014 59.0939L106.643 58.6811C105.622 57.5466 103.858 57.5002 102.779 58.5795L98.7891 62.1703C98.1621 62.7346 97.3484 63.0469 96.5049 63.0469C95.7456 63.0469 95.0079 63.3 94.4085 63.7662L90.8659 66.5215L84.8633 71.3236C83.9053 72.0901 82.8527 72.7303 81.7316 73.2286L81.6745 73.254C79.8801 74.0515 77.9383 74.4636 75.9746 74.4636H74.898C72.9896 74.4636 71.1026 74.864 69.3587 75.6391C68.1502 76.1762 67.0261 76.8863 66.022 77.747L65.4302 78.2543C64.5198 79.0345 63.5376 79.7268 62.4966 80.3216L60.5869 81.4128L54.1341 84.8875Z" fill="white" fill-opacity="0.51"/>
</g>
<defs>
<filter id="filter0_f_26_463" x="0" y="53.7992" width="111.834" height="88.2006" filterUnits="userSpaceOnUse" color-interpolation-filters="sRGB">
<feFlood flood-opacity="0" result="BackgroundImageFix"/>
<feBlend mode="normal" in="SourceGraphic" in2="BackgroundImageFix" result="shape"/>
<feGaussianBlur stdDeviation="2" result="effect1_foregroundBlur_26_463"/>
</filter>
</defs>
</svg>
