<svg width="16" height="25" viewBox="0 0 16 25" fill="none" xmlns="http://www.w3.org/2000/svg">
<path d="M5.09091 17.0227V16.6364C5.09849 15.3106 5.21591 14.2538 5.44318 13.4659C5.67803 12.678 6.01894 12.0417 6.46591 11.5568C6.91288 11.072 7.45076 10.6326 8.07955 10.2386C8.54924 9.93561 8.9697 9.62121 9.34091 9.29545C9.71212 8.9697 10.0076 8.60985 10.2273 8.21591C10.447 7.81439 10.5568 7.36742 10.5568 6.875C10.5568 6.35227 10.4318 5.89394 10.1818 5.5C9.93182 5.10606 9.5947 4.80303 9.17045 4.59091C8.75379 4.37879 8.29167 4.27273 7.78409 4.27273C7.29167 4.27273 6.82576 4.38257 6.38636 4.60227C5.94697 4.81439 5.58712 5.13258 5.30682 5.55682C5.02652 5.97348 4.875 6.49242 4.85227 7.11364H0.215909C0.253788 5.59848 0.617424 4.34848 1.30682 3.36364C1.99621 2.37121 2.90909 1.63258 4.04545 1.14773C5.18182 0.655302 6.43561 0.40909 7.80682 0.40909C9.31439 0.40909 10.6477 0.65909 11.8068 1.15909C12.9659 1.65151 13.875 2.36742 14.5341 3.30682C15.1932 4.24621 15.5227 5.37879 15.5227 6.70454C15.5227 7.59091 15.375 8.37879 15.0795 9.06818C14.7917 9.75 14.3864 10.3561 13.8636 10.8864C13.3409 11.4091 12.7235 11.8826 12.0114 12.3068C11.4129 12.6629 10.9205 13.0341 10.5341 13.4205C10.1553 13.8068 9.87121 14.2538 9.68182 14.7614C9.5 15.2689 9.4053 15.8939 9.39773 16.6364V17.0227H5.09091ZM7.34091 24.2955C6.58333 24.2955 5.93561 24.0303 5.39773 23.5C4.86742 22.9621 4.60606 22.3182 4.61364 21.5682C4.60606 20.8258 4.86742 20.1894 5.39773 19.6591C5.93561 19.1288 6.58333 18.8636 7.34091 18.8636C8.06061 18.8636 8.69318 19.1288 9.23864 19.6591C9.78409 20.1894 10.0606 20.8258 10.0682 21.5682C10.0606 22.0682 9.92803 22.5265 9.67045 22.9432C9.42045 23.3523 9.09091 23.6818 8.68182 23.9318C8.27273 24.1742 7.82576 24.2955 7.34091 24.2955Z" fill="white"/>
</svg>
